<svg width="20" height="20" fill="none" xmlns="http://www.w3.org/2000/svg"><path d="M10 5.417a4.583 4.583 0 100 9.166 4.583 4.583 0 000-9.166zm0 8.333a3.75 3.75 0 110-7.5 3.75 3.75 0 010 7.5zM14.583 0H5.417A5.423 5.423 0 000 5.417v9.166A5.423 5.423 0 005.417 20h9.166A5.423 5.423 0 0020 14.583V5.417A5.423 5.423 0 0014.583 0zm4.584 14.583a4.588 4.588 0 01-4.584 4.584H5.417a4.588 4.588 0 01-4.584-4.584V5.417A4.589 4.589 0 015.417.833h9.166a4.588 4.588 0 014.584 4.584v9.166zm-2.917-10a.834.834 0 11-1.668 0 .834.834 0 011.668 0z" fill="#000"/></svg>