<svg width="20" height="20" fill="none" xmlns="http://www.w3.org/2000/svg"><path d="M20 7.514v9.365c0 .827-.333 1.621-.925 2.207a3.177 3.177 0 01-2.233.914H3.158c-.838 0-1.64-.329-2.233-.914A3.103 3.103 0 010 16.879V7.514C0 6.36.635 5.35 1.579 4.811l-.003-.004L9.998 0l8.428 4.81v.003c.478.274.876.668 1.152 1.142.277.475.422 1.012.422 1.56zM1.807 5.918L10 11.177l8.193-5.259-8.195-4.716-8.19 4.716zM10 12.417L1.194 6.765a2.055 2.055 0 00-.141.75v9.364c0 .551.221 1.08.616 1.471.395.39.93.61 1.489.61h13.684c.559 0 1.094-.22 1.489-.61s.616-.92.616-1.471V7.514c0-.264-.05-.517-.14-.749L10 12.416v.001z" fill="#000"/></svg>