<svg width="21" height="21" fill="none" xmlns="http://www.w3.org/2000/svg"><path d="M13.342 1.151a.417.417 0 01.511-.295 8.78 8.78 0 016.2 6.2.418.418 0 01-.736.363.417.417 0 01-.07-.148 7.945 7.945 0 00-5.61-5.609.417.417 0 01-.295-.51zm-.569 3.737a4.6 4.6 0 013.247 3.247.417.417 0 10.807-.215 5.436 5.436 0 00-3.838-3.838.418.418 0 10-.216.806zm8.086 10.413a5.433 5.433 0 01-5.383 4.74C7.42 20.041.868 13.488.868 5.433A5.433 5.433 0 015.607.05 1.254 1.254 0 016.909.8l2.096 4.892a1.25 1.25 0 01-.103 1.179L7.166 9.523a.411.411 0 00-.03.403 8.404 8.404 0 003.881 3.864.41.41 0 00.404-.033l2.612-1.742a1.248 1.248 0 011.188-.11L20.108 14a1.254 1.254 0 01.75 1.302zm-1.08-.534l-4.887-2.095a.416.416 0 00-.396.037l-2.612 1.742a1.249 1.249 0 01-1.23.09 9.244 9.244 0 01-4.268-4.249 1.249 1.249 0 01.082-1.226l1.736-2.652a.417.417 0 00.034-.393L6.142 1.129a.417.417 0 00-.43-.25 4.596 4.596 0 00-4.01 4.554c0 7.595 6.18 13.773 13.774 13.773a4.596 4.596 0 004.555-4.01.415.415 0 00-.252-.429z" fill="#000"/></svg>